<svg id="Capa_1" data-name="Capa 1" xmlns="http://www.w3.org/2000/svg" viewBox="0 0 1920 1080"><defs><style>.cls-1{fill:#a8202b;}.cls-1,.cls-2{fill-rule:evenodd;}.cls-2{fill:#e83947;fill-opacity:0.5;}</style></defs><path class="cls-1" d="M0,309.83l64-36.75c64-36.76,192-110.28,320-95.58s256,117.63,384,125,256-80.87,384-80.87S1408,309.83,1536,354s256,44.11,320,44.11h64V1.06H0Z"/><path class="cls-2" d="M-.28,236l52.8-7.86c54.4-7.87,160-23.6,267.2-31.47s212.8-7.86,320,7.87,212.8,47.19,320,23.6,212.8-102.25,320-78.66,212.8,149.44,320,196.64,212.8,15.73,267.2,0l52.8-15.73V0H-.28Z"/></svg>